<svg width="1320" height="1320" viewBox="0 0 1320 1320" fill="none" xmlns="http://www.w3.org/2000/svg">
<path d="M828.992 423L799 479.804C802.584 481.873 806.357 483.942 809.941 486.199C813.713 488.644 817.486 491.089 821.258 493.535C825.031 496.168 828.615 498.613 832.199 501.434C835.783 504.068 839.367 506.889 842.762 509.899C846.158 512.72 849.553 515.729 852.948 518.739C856.344 521.748 859.55 524.946 862.757 528.143C865.964 531.341 868.982 534.539 872.189 537.924C875.207 541.31 878.225 544.696 881.054 548.081C883.884 551.467 886.713 555.041 889.543 558.614C890.297 559.743 891.24 560.871 891.995 562L945 525.51C914.442 483.378 874.829 448.392 828.992 423Z" fill="#9C57AC"/>
<path d="M880.914 548.365C878.096 544.975 875.089 541.585 872.083 538.195C869.076 534.805 865.882 531.603 862.688 528.402C859.494 525.2 856.299 522.187 852.917 518.985C849.535 515.972 846.153 512.958 842.771 510.133C839.389 507.308 835.818 504.483 832.248 501.658C828.678 499.022 824.92 496.385 821.35 493.748C817.592 491.112 813.834 488.663 810.076 486.403C806.506 484.143 802.936 482.072 799.178 480L774 528.025C776.818 529.532 779.449 531.227 782.08 532.733C785.462 534.805 788.844 537.065 792.226 539.325C795.608 541.585 798.803 544.033 801.997 546.482C805.191 548.93 808.197 551.567 811.392 554.015C814.398 556.652 817.404 559.288 820.411 562.113C823.229 564.938 826.236 567.763 828.866 570.588C831.685 573.413 834.315 576.427 836.946 579.628C839.576 582.642 842.019 585.843 844.65 589.045C845.589 590.363 846.529 591.682 847.468 593L892 562.113C891.248 560.983 890.309 559.853 889.557 558.723C886.739 555.333 883.92 551.755 880.914 548.365Z" fill="#70447E"/>
<path d="M902 575.833C903.126 577.533 904.253 579.422 905.379 581.122C907.819 584.9 910.072 588.867 912.137 592.833C914.389 596.8 916.454 600.767 918.332 604.733C920.397 608.7 922.274 612.856 923.963 617.011C925.84 621.167 927.53 625.322 929.032 629.478C930.721 633.633 932.223 637.978 933.537 642.322C935.039 646.667 936.353 651.011 937.479 655.356C938.793 659.7 939.919 664.044 940.858 668.389C941.797 672.733 942.735 677.267 943.674 681.611C944.237 685.011 944.8 688.6 945.363 692L1009 684.256C1001.49 632.5 982.907 582.822 954.374 539L902 575.833Z" fill="#9C57AC"/>
<path d="M940.543 667.828C939.602 663.518 938.474 659.207 937.156 654.897C935.839 650.587 934.522 646.277 933.205 641.966C931.7 637.656 930.194 633.533 928.689 629.223C926.996 625.1 925.302 620.977 923.609 616.854C921.727 612.731 919.846 608.608 917.964 604.673C915.894 600.737 913.825 596.614 911.755 592.866C909.497 588.931 907.239 584.995 904.981 581.247C903.852 579.561 902.723 577.687 901.594 576L857 606.734C857.564 607.484 858.129 608.421 858.693 609.171C860.763 612.544 862.833 616.104 864.903 619.478C866.784 623.038 868.666 626.599 870.548 630.16C872.241 633.72 873.934 637.469 875.628 641.029C877.133 644.777 878.639 648.338 880.144 652.273C881.461 656.022 882.778 659.77 884.095 663.705C885.224 667.453 886.353 671.389 887.482 675.324C888.423 679.26 889.364 683.195 890.116 686.943C890.869 690.691 891.622 694.252 892.186 698L946 691.441C945.436 688.068 944.871 684.507 944.307 681.134C942.613 676.636 941.672 672.326 940.543 667.828Z" fill="#70447E"/>
<path d="M947.446 707.747C947.823 712.471 948.2 716.817 948.388 721.352C948.577 725.887 948.765 730.422 948.765 734.957C948.765 747.806 948.012 760.655 946.316 773.315C944.621 785.975 942.172 798.636 938.781 810.918C936.709 817.72 934.449 824.523 932 831.136L992.279 854C1005.84 815.831 1012.81 775.583 1013 734.957C1013 723.242 1012.43 711.526 1011.3 700L947.446 707.747Z" fill="#9C57AC"/>
<path d="M947.69 708.084L894.165 714.503C894.352 717.336 894.726 720.168 894.726 723C894.913 726.965 895.101 731.119 895.101 735.084C895.101 746.413 894.352 757.741 892.668 769.07C890.983 780.399 888.737 791.538 885.556 802.301C884.433 805.511 883.31 808.72 882 811.741L932.344 831C934.777 824.392 937.022 817.594 939.081 810.797C942.45 798.525 944.883 785.874 946.567 773.224C948.251 760.573 949 747.734 949 734.895C949 730.364 948.813 725.832 948.626 721.301C948.439 716.958 948.064 712.615 947.69 708.084Z" fill="#70447E"/>
<path d="M926.346 846.565C921.469 858.437 915.841 869.932 909.463 880.862C903.085 891.98 895.957 902.533 888.265 912.709C880.574 922.884 872.133 932.495 863.128 941.54C860.877 943.613 858.439 945.686 856 947.759L898.583 996C936.664 960.573 966.491 917.043 986 868.613L926.534 846C926.534 846.188 926.534 846.377 926.346 846.565Z" fill="#9C57AC"/>
<path d="M873.217 833.963C868.499 844.313 863.026 854.286 856.799 863.695C850.571 873.292 843.778 882.325 836.418 890.981C831.134 896.627 825.661 902.084 820 907.353L856.044 948C858.497 945.93 860.762 943.86 863.215 941.79C872.273 932.757 880.765 923.16 888.503 912.998C896.24 902.837 903.411 892.299 909.827 881.196C916.243 870.093 921.905 858.614 926.811 846.947C926.811 846.759 927 846.571 927 846.383L875.859 827C875.104 829.258 874.161 831.516 873.217 833.963Z" fill="#70447E"/>
<path d="M424.486 913.264C416.736 903.156 409.553 892.673 403.126 881.629C396.698 870.585 391.027 859.167 386.113 847.562C386.113 847.374 385.924 847.187 385.924 847L326 869.462C345.659 917.569 375.716 960.622 414.089 996L457 948.08C454.543 946.021 452.274 943.962 449.817 941.903C440.743 932.731 432.426 923.185 424.486 913.264Z" fill="#9C57AC"/>
<path d="M456.201 863.752C449.974 854.14 444.69 844.151 439.783 833.974C438.84 831.712 438.085 829.262 437.141 827L386 846.224C386 846.413 386.189 846.601 386.189 846.79C391.095 858.664 396.757 870.16 403.173 881.092C409.589 892.212 416.76 902.766 424.497 912.944C432.235 923.121 440.727 932.734 449.785 941.78C452.049 943.854 454.503 945.927 456.956 948L493 907.29C487.339 902.012 481.866 896.547 476.582 890.893C469.222 882.411 462.429 873.364 456.201 863.752Z" fill="#70447E"/>
<path d="M366.684 773.315C364.988 760.655 364.235 747.806 364.235 734.957C364.423 725.887 364.988 716.817 365.93 707.747L302.072 700C300.753 711.526 300.188 723.242 300 734.957C300.188 775.583 307.158 815.831 320.721 854L381 831.136C378.551 824.523 376.291 817.72 374.219 810.918C370.828 798.636 368.191 785.975 366.684 773.315Z" fill="#9C57AC"/>
<path d="M420.145 769.029C418.461 757.727 417.712 746.426 417.712 735.124C417.899 728.343 418.461 721.374 419.21 714.593L365.684 708C364.749 717.041 364.187 726.083 364 735.124C364 747.933 364.749 760.741 366.433 773.361C368.117 785.982 370.55 798.602 373.919 810.845C375.978 817.626 378.223 824.407 380.656 831L431 811.787C429.69 808.585 428.567 805.571 427.444 802.369C424.263 791.444 421.83 780.331 420.145 769.029Z" fill="#70447E"/>
<path d="M304 684.236L367.227 692C368.724 681.017 370.969 670.224 373.587 659.431C376.955 647.123 380.883 634.814 385.747 623.074C390.61 611.145 396.222 599.783 402.582 588.611C405.388 584.256 408.194 579.901 411 575.735L358.248 539C330.002 582.741 311.483 632.353 304 684.236Z" fill="#9C57AC"/>
<path d="M402.866 588.783C396.414 599.874 390.721 611.341 385.787 622.995C380.853 634.838 376.678 646.869 373.452 659.088C370.606 669.803 368.518 680.518 367 691.421L421.083 698C422.601 687.849 424.878 677.698 427.725 667.735C430.951 656.832 434.936 646.305 439.68 635.966C444.424 625.815 449.738 615.852 456 606.453L411.405 576C408.559 580.324 405.712 584.459 402.866 588.783Z" fill="#70447E"/>
<path d="M368 525.461L420.71 562C421.836 560.117 423.149 558.421 424.274 556.538C431.965 546.367 440.406 536.762 449.41 527.721C458.414 518.68 467.981 510.205 478.11 502.482C488.239 494.76 498.744 487.603 509.811 481.199C510.937 480.634 511.875 480.069 513 479.692L483.362 423C437.968 448.238 398.576 483.083 368 525.461Z" fill="#9C57AC"/>
<path d="M509.778 481.504C498.751 487.897 488.284 495.042 478.192 502.75C468.099 510.459 458.567 518.92 449.596 527.945C440.625 536.97 432.214 546.559 424.551 556.712C423.243 558.592 422.121 560.285 421 562.165L465.482 593C468.847 588.111 472.398 583.223 476.136 578.71C483.425 570.062 491.462 562.165 500.059 554.644C508.657 547.311 517.628 540.354 526.973 534.338C530.524 532.27 534.262 530.201 538 528.321L512.768 480C511.834 480.376 510.899 480.94 509.778 481.504Z" fill="#70447E"/>
<path d="M528.113 473C533.571 470.18 539.029 467.36 544.487 464.916C556.344 460.028 568.389 455.892 580.622 452.696C592.856 449.312 605.466 446.868 618.075 445.176C628.05 444.048 638.025 443.296 648 443.296V379C595.867 380.128 544.675 392.912 498 416.036L528.113 473Z" fill="#9C57AC"/>
<path d="M580.476 452.466C568.251 455.874 556.025 459.85 544.364 464.772C538.721 467.233 533.266 470.073 528 472.913L553.016 521C554.52 520.243 555.837 519.485 557.342 518.728C567.687 513.995 578.219 510.019 589.129 506.801C600.038 503.583 611.135 501.121 622.232 499.607C630.696 498.471 639.348 497.903 648 497.714V443C638.031 443.189 628.063 443.757 618.094 444.893C605.304 446.597 592.702 449.058 580.476 452.466Z" fill="#70447E"/>
<path d="M761.786 462.39C757.668 460.712 753.362 459.22 749.243 457.915C744.938 456.424 740.632 455.119 736.326 454C732.02 452.695 727.714 451.576 723.409 450.644C719.103 449.712 714.61 448.78 710.304 447.847C705.811 447.102 701.505 446.356 697.012 445.61C692.52 445.051 688.214 444.492 683.721 444.119C679.228 443.746 674.735 443.373 670.242 443.186C668.557 443.186 666.685 443 665 443V496.695C666.31 496.695 667.621 496.695 668.931 496.695C672.863 496.881 676.981 497.254 680.913 497.627C684.844 498 688.775 498.559 692.894 499.119C696.825 499.678 700.757 500.424 704.688 501.169C708.619 501.915 712.551 502.847 716.295 503.966C720.226 504.898 723.97 506.017 727.902 507.322C731.646 508.441 735.577 509.746 739.321 511.237C743.065 512.542 746.81 514.034 750.554 515.712C753.736 517.017 756.919 518.508 759.914 520L785 472.458C781.63 470.78 778.073 469.102 774.516 467.61C770.023 465.746 765.905 463.881 761.786 462.39Z" fill="#70447E"/>
<path d="M665 442.365C666.692 442.365 668.571 442.365 670.263 442.554C674.774 442.743 679.286 443.12 683.797 443.498C688.308 443.875 692.82 444.442 697.143 445.008C701.654 445.574 705.977 446.329 710.489 447.273C715 448.028 719.323 448.972 723.647 450.104C727.97 451.048 732.293 452.369 736.617 453.502C740.94 454.823 745.263 456.145 749.586 457.466C753.91 458.976 758.045 460.486 762.18 461.996C766.316 463.695 770.451 465.394 774.586 467.092C778.158 468.602 781.541 470.301 785.113 472L815 414.996C768.383 391.779 717.068 379.133 665 378V442.365Z" fill="#9C57AC"/>
<path d="M836.699 579.79C834.077 576.766 831.454 573.742 828.645 570.717C825.835 567.882 823.026 564.858 820.217 562.212C817.407 559.376 814.41 556.73 811.226 554.084C808.23 551.438 805.046 548.981 801.862 546.523C798.678 544.066 795.493 541.609 792.122 539.341C788.751 537.073 785.567 534.805 782.008 532.725C779.386 531.024 776.577 529.512 773.954 528L732 608.709C747.733 618.16 761.406 630.446 772.643 645L847 593.21C846.064 591.887 845.127 590.564 844.191 589.241C841.943 586.027 839.321 582.814 836.699 579.79Z" fill="#483153"/>
<path d="M886.692 675.171C885.756 671.202 884.632 667.422 883.321 663.453C882.198 659.673 880.887 655.705 879.388 651.925C878.077 648.145 876.579 644.365 874.893 640.585C873.395 636.806 871.71 633.215 869.837 629.624C868.151 626.033 866.278 622.442 864.218 618.851C862.345 615.261 860.285 611.859 858.038 608.457C857.476 607.701 856.914 606.756 856.352 606L782 657.783C791.552 673.47 798.107 690.857 801.29 709L891 698.039C890.438 694.259 889.689 690.479 888.94 686.888C888.753 682.919 887.816 679.139 886.692 675.171Z" fill="#483153"/>
<path d="M893.869 714L803.785 725.015C803.973 728.244 804.162 731.473 804.162 734.702C804.162 749.895 801.712 765.089 797 779.523L881.808 812C883.127 808.771 884.258 805.733 885.389 802.504C888.592 791.488 891.042 780.283 892.55 769.078C894.246 757.682 895 746.287 895 734.891C895 730.903 894.812 726.725 894.623 722.736C894.246 719.698 894.058 716.849 893.869 714Z" fill="#483153"/>
<path d="M760 839.973L820.169 908C825.828 902.709 831.298 897.229 836.579 891.56C843.935 882.868 850.914 873.798 856.95 864.161C863.174 854.523 868.455 844.508 873.359 834.304C874.302 832.037 875.057 829.58 876 827.313L791.122 795C783.577 811.818 773.015 826.935 760 839.973Z" fill="#483153"/>
<path d="M437 827.027C437.754 829.461 438.698 831.709 439.641 833.957C444.356 844.258 449.826 854.184 456.05 863.548C462.275 873.1 469.065 882.09 476.421 890.706C481.702 896.324 487.172 901.756 492.831 907L553 839.575C539.985 826.839 529.423 811.669 522.067 795L437 827.027Z" fill="#483153"/>
<path d="M509.404 724.924L419.508 714C418.754 720.781 418.188 727.75 418 734.53C418 745.831 418.754 757.132 420.45 768.433C422.146 779.734 424.408 790.847 427.612 801.583C428.742 804.784 429.873 807.986 431.192 811L516 778.981C511.288 764.666 508.838 749.598 508.838 734.53C508.838 731.328 509.215 728.126 509.404 724.924Z" fill="#483153"/>
<path d="M439.522 635.806C434.797 646.181 430.828 656.745 427.615 667.687C424.78 677.685 422.512 687.872 421 698.059L511.533 709C514.746 690.89 521.361 673.535 531 657.877L455.777 606C449.54 615.81 444.058 625.619 439.522 635.806Z" fill="#483153"/>
<path d="M527.822 535.016C518.239 541.22 509.219 547.989 500.763 555.321C492.119 562.653 484.227 570.737 476.711 579.386C472.953 584.086 469.382 588.786 466 593.674L540.224 645C551.498 630.524 565.216 618.303 581 608.903L539.096 529C535.15 530.88 531.392 532.76 527.822 535.016Z" fill="#483153"/>
<path d="M589.119 506.076C578.208 509.291 567.673 513.262 557.327 517.989C555.822 518.745 554.505 519.502 553 520.258L595.139 601C611.881 593.436 629.752 588.898 648 587.953V497C639.347 497.189 630.881 497.756 622.228 498.891C611.129 500.404 600.03 502.862 589.119 506.076Z" fill="#483153"/>
<path d="M739.32 511.722C735.526 510.401 731.731 509.08 727.747 507.759C723.953 506.626 719.968 505.494 715.984 504.361C712 503.417 708.016 502.474 704.221 501.53C700.237 500.775 696.253 500.02 692.269 499.454C688.285 498.887 684.3 498.321 680.126 497.944C676.142 497.566 671.968 497.189 667.984 497C666.656 497 665.328 497 664 497V587.976C682.403 588.92 700.617 593.45 717.502 601L760 520.405C756.775 518.895 753.739 517.385 750.514 516.064C746.909 514.554 743.115 513.044 739.32 511.722Z" fill="#483153"/>
<path d="M656.5 702C637.952 702 623 716.709 623 735C623 753.103 637.952 768 656.5 768C675.048 768 690 753.291 690 735C689.811 716.897 674.859 702 656.5 702Z" fill="#E04644"/>
<path d="M656.5 721.989C649.119 721.989 643.251 727.834 643.251 735C643.251 742.166 649.119 748.011 656.5 748.011C663.881 748.011 669.749 742.166 669.749 735C669.559 727.834 663.692 721.989 656.5 721.989Z" fill="#E5E5E5"/>
<path d="M654.044 629.211C654.492 627.099 657.508 627.099 657.956 629.211L679.487 730.584C679.751 731.829 678.803 733 677.531 733H634.47C633.198 733 632.249 731.829 632.513 730.584L654.044 629.211Z" fill="#851616"/>
<text fill="white" xml:space="preserve" style="white-space: pre" font-family="Bebas Neue" font-size="96" letter-spacing="0em"><tspan x="227" y="1082.3">1000</tspan></text>
<text fill="white" xml:space="preserve" style="white-space: pre" font-family="Bebas Neue" font-size="96" letter-spacing="0em"><tspan x="114" y="907.3">1000</tspan></text>
<text fill="white" xml:space="preserve" style="white-space: pre" font-family="Bebas Neue" font-size="96" letter-spacing="0em"><tspan x="95" y="720.3">1000</tspan></text>
<text fill="white" xml:space="preserve" style="white-space: pre" font-family="Bebas Neue" font-size="96" letter-spacing="0em"><tspan x="159" y="520.3">1000</tspan></text>
<text fill="white" xml:space="preserve" style="white-space: pre" font-family="Bebas Neue" font-size="96" letter-spacing="0em"><tspan x="344" y="386.3">1000</tspan></text>
<text fill="white" xml:space="preserve" style="white-space: pre" font-family="Bebas Neue" font-size="96" letter-spacing="0em"><tspan x="588" y="337.3">1000</tspan></text>
<text fill="white" xml:space="preserve" style="white-space: pre" font-family="Bebas Neue" font-size="96" letter-spacing="0em"><tspan x="820" y="378.3">1000</tspan></text>
<text fill="white" xml:space="preserve" style="white-space: pre" font-family="Bebas Neue" font-size="96" letter-spacing="0em"><tspan x="984" y="539.3">1000</tspan></text>
<text fill="white" xml:space="preserve" style="white-space: pre" font-family="Bebas Neue" font-size="96" letter-spacing="0em"><tspan x="1048" y="714.3">1000</tspan></text>
<text fill="white" xml:space="preserve" style="white-space: pre" font-family="Bebas Neue" font-size="96" letter-spacing="0em"><tspan x="1045" y="907.3">1000</tspan></text>
<text fill="white" xml:space="preserve" style="white-space: pre" font-family="Bebas Neue" font-size="96" letter-spacing="0em"><tspan x="932" y="1082.3">1000</tspan></text>
</svg>
