<svg width="500" height="500" viewBox="0 0 500 500" fill="none" xmlns="http://www.w3.org/2000/svg">
<path d="M339.5 120.3L323.6 150.5C325.5 151.6 327.5 152.7 329.4 153.9C331.4 155.2 333.4 156.5 335.4 157.8C337.4 159.2 339.3 160.5 341.2 162C343.1 163.4 345 164.9 346.8 166.5C348.6 168 350.4 169.6 352.2 171.2C354 172.8 355.7 174.5 357.4 176.2C359.1 177.9 360.7 179.6 362.4 181.4C364 183.2 365.6 185 367.1 186.8C368.6 188.6 370.1 190.5 371.6 192.4C372 193 372.5 193.6 372.9 194.2L401 174.8C384.8 152.4 363.8 133.8 339.5 120.3Z" fill="#9C57AC"/>
<path d="M367.1 186.8C365.6 185 364 183.2 362.4 181.4C360.8 179.6 359.1 177.9 357.4 176.2C355.7 174.5 354 172.9 352.2 171.2C350.4 169.6 348.6 168 346.8 166.5C345 165 343.1 163.5 341.2 162C339.3 160.6 337.3 159.2 335.4 157.8C333.4 156.4 331.4 155.1 329.4 153.9C327.5 152.7 325.6 151.6 323.6 150.5L310.2 176C311.7 176.8 313.1 177.7 314.5 178.5C316.3 179.6 318.1 180.8 319.9 182C321.7 183.2 323.4 184.5 325.1 185.8C326.8 187.1 328.4 188.5 330.1 189.8C331.7 191.2 333.3 192.6 334.9 194.1C336.4 195.6 338 197.1 339.4 198.6C340.9 200.1 342.3 201.7 343.7 203.4C345.1 205 346.4 206.7 347.8 208.4C348.3 209.1 348.8 209.8 349.3 210.5L373 194.1C372.6 193.5 372.1 192.9 371.7 192.3C370.2 190.5 368.7 188.6 367.1 186.8Z" fill="#70447E"/>
<path d="M377.9 201.4C378.5 202.3 379.1 203.3 379.7 204.2C381 206.2 382.2 208.3 383.3 210.4C384.5 212.5 385.6 214.6 386.6 216.7C387.7 218.8 388.7 221 389.6 223.2C390.6 225.4 391.5 227.6 392.3 229.8C393.2 232 394 234.3 394.7 236.6C395.5 238.9 396.2 241.2 396.8 243.5C397.5 245.8 398.1 248.1 398.6 250.4C399.1 252.7 399.6 255.1 400.1 257.4C400.4 259.2 400.7 261.1 401 262.9L434.9 258.8C430.9 231.4 421 205.1 405.8 181.9L377.9 201.4Z" fill="#9C57AC"/>
<path d="M398.8 250.4C398.3 248.1 397.7 245.8 397 243.5C396.3 241.2 395.6 238.9 394.9 236.6C394.1 234.3 393.3 232.1 392.5 229.8C391.6 227.6 390.7 225.4 389.8 223.2C388.8 221 387.8 218.8 386.8 216.7C385.7 214.6 384.6 212.4 383.5 210.4C382.3 208.3 381.1 206.2 379.9 204.2C379.3 203.3 378.7 202.3 378.1 201.4L354.4 217.8C354.7 218.2 355 218.7 355.3 219.1C356.4 220.9 357.5 222.8 358.6 224.6C359.6 226.5 360.6 228.4 361.6 230.3C362.5 232.2 363.4 234.2 364.3 236.1C365.1 238.1 365.9 240 366.7 242.1C367.4 244.1 368.1 246.1 368.8 248.2C369.4 250.2 370 252.3 370.6 254.4C371.1 256.5 371.6 258.6 372 260.6C372.4 262.6 372.8 264.5 373.1 266.5L401.7 263C401.4 261.2 401.1 259.3 400.8 257.5C399.9 255.1 399.4 252.8 398.8 250.4Z" fill="#70447E"/>
<path d="M402.3 271.6C402.5 274.1 402.7 276.4 402.8 278.8C402.9 281.2 403 283.6 403 286C403 292.8 402.6 299.6 401.7 306.3C400.8 313 399.5 319.7 397.7 326.2C396.6 329.8 395.4 333.4 394.1 336.9L426.1 349C433.3 328.8 437 307.5 437.1 286C437.1 279.8 436.8 273.6 436.2 267.5L402.3 271.6Z" fill="#9C57AC"/>
<path d="M402.3 271.7L373.7 275.1C373.8 276.6 374 278.1 374 279.6C374.1 281.7 374.2 283.9 374.2 286C374.2 292 373.8 298 372.9 304C372 310 370.8 315.9 369.1 321.6C368.5 323.3 367.9 325 367.2 326.6L394.1 336.8C395.4 333.3 396.6 329.7 397.7 326.1C399.5 319.6 400.8 312.9 401.7 306.2C402.6 299.5 403 292.7 403 285.9C403 283.5 402.9 281.1 402.8 278.7C402.7 276.4 402.5 274.1 402.3 271.7Z" fill="#70447E"/>
<path d="M93.6998 306.3C92.7998 299.6 92.3998 292.8 92.3998 286C92.4998 281.2 92.7998 276.4 93.2998 271.6L59.3998 267.5C58.6998 273.6 58.3998 279.8 58.2998 286C58.3998 307.5 62.0998 328.8 69.2998 349L101.3 336.9C99.9998 333.4 98.7998 329.8 97.6998 326.2C95.8998 319.7 94.4998 313 93.6998 306.3Z" fill="#9C57AC"/>
<path d="M122.4 304C121.5 298 121.1 292 121.1 286C121.2 282.4 121.5 278.7 121.9 275.1L93.2999 271.6C92.7999 276.4 92.4999 281.2 92.3999 286C92.3999 292.8 92.7999 299.6 93.6999 306.3C94.5999 313 95.8999 319.7 97.6999 326.2C98.7999 329.8 99.9999 333.4 101.3 336.9L128.2 326.7C127.5 325 126.9 323.4 126.3 321.7C124.6 315.9 123.3 310 122.4 304Z" fill="#70447E"/>
<path d="M60.3999 258.9L94.1999 263C94.9999 257.2 96.1999 251.5 97.5999 245.8C99.3999 239.3 101.5 232.8 104.1 226.6C106.7 220.3 109.7 214.3 113.1 208.4C114.6 206.1 116.1 203.8 117.6 201.6L89.3999 182.2C74.2999 205.3 64.3999 231.5 60.3999 258.9Z" fill="#9C57AC"/>
<path d="M113.1 208.3C109.7 214.2 106.7 220.3 104.1 226.5C101.5 232.8 99.3002 239.2 97.6002 245.7C96.1002 251.4 95.0002 257.1 94.2002 262.9L122.7 266.4C123.5 261 124.7 255.6 126.2 250.3C127.9 244.5 130 238.9 132.5 233.4C135 228 137.8 222.7 141.1 217.7L117.6 201.5C116.1 203.8 114.6 206 113.1 208.3Z" fill="#70447E"/>
<path d="M94.3999 175L122.5 194.4C123.1 193.4 123.8 192.5 124.4 191.5C128.5 186.1 133 181 137.8 176.2C142.6 171.4 147.7 166.9 153.1 162.8C158.5 158.7 164.1 154.9 170 151.5C170.6 151.2 171.1 150.9 171.7 150.7L155.9 120.6C131.7 134 110.7 152.5 94.3999 175Z" fill="#9C57AC"/>
<path d="M170 151.5C164.1 154.9 158.5 158.7 153.1 162.8C147.7 166.9 142.6 171.4 137.8 176.2C133 181 128.5 186.1 124.4 191.5C123.7 192.5 123.1 193.4 122.5 194.4L146.3 210.8C148.1 208.2 150 205.6 152 203.2C155.9 198.6 160.2 194.4 164.8 190.4C169.4 186.5 174.2 182.8 179.2 179.6C181.1 178.5 183.1 177.4 185.1 176.4L171.6 150.7C171.1 150.9 170.6 151.2 170 151.5Z" fill="#70447E"/>
<path d="M179.5 146.8C182.4 145.3 185.3 143.8 188.2 142.5C194.5 139.9 200.9 137.7 207.4 136C213.9 134.2 220.6 132.9 227.3 132C232.6 131.4 237.9 131 243.2 131V96.8C215.5 97.4 188.3 104.2 163.5 116.5L179.5 146.8Z" fill="#9C57AC"/>
<path d="M207.5 136C201 137.8 194.5 139.9 188.3 142.5C185.3 143.8 182.4 145.3 179.6 146.8L192.9 172.2C193.7 171.8 194.4 171.4 195.2 171C200.7 168.5 206.3 166.4 212.1 164.7C217.9 163 223.8 161.7 229.7 160.9C234.2 160.3 238.8 160 243.4 159.9V131C238.1 131.1 232.8 131.4 227.5 132C220.7 132.9 214 134.2 207.5 136Z" fill="#70447E"/>
<path d="M303.8 141.2C301.6 140.3 299.3 139.5 297.1 138.8C294.8 138 292.5 137.3 290.2 136.7C287.9 136 285.6 135.4 283.3 134.9C281 134.4 278.6 133.9 276.3 133.4C273.9 133 271.6 132.6 269.2 132.2C266.8 131.9 264.5 131.6 262.1 131.4C259.7 131.2 257.3 131 254.9 130.9C254 130.9 253 130.8 252.1 130.8V159.6C252.8 159.6 253.5 159.6 254.2 159.6C256.3 159.7 258.5 159.9 260.6 160.1C262.7 160.3 264.8 160.6 267 160.9C269.1 161.2 271.2 161.6 273.3 162C275.4 162.4 277.5 162.9 279.5 163.5C281.6 164 283.6 164.6 285.7 165.3C287.7 165.9 289.8 166.6 291.8 167.4C293.8 168.1 295.8 168.9 297.8 169.8C299.5 170.5 301.2 171.3 302.8 172.1L316.2 146.6C314.4 145.7 312.5 144.8 310.6 144C308.2 143 306 142 303.8 141.2Z" fill="#70447E"/>
<path d="M252 130.8C252.9 130.8 253.9 130.8 254.8 130.9C257.2 131 259.6 131.2 262 131.4C264.4 131.6 266.8 131.9 269.1 132.2C271.5 132.5 273.8 132.9 276.2 133.4C278.6 133.8 280.9 134.3 283.2 134.9C285.5 135.4 287.8 136.1 290.1 136.7C292.4 137.4 294.7 138.1 297 138.8C299.3 139.6 301.5 140.4 303.7 141.2C305.9 142.1 308.1 143 310.3 143.9C312.2 144.7 314 145.6 315.9 146.5L331.8 116.3C307 104 279.7 97.3 252 96.7V130.8Z" fill="#9C57AC"/>
<path d="M247.7 268.5C237.9 268.5 230 276.3 230 286C230 295.6 237.9 303.5 247.7 303.5C257.5 303.5 265.4 295.7 265.4 286C265.3 276.4 257.4 268.5 247.7 268.5Z" fill="#E04644"/>
<path d="M247.7 279.1C243.8 279.1 240.7 282.2 240.7 286C240.7 289.8 243.8 292.9 247.7 292.9C251.6 292.9 254.7 289.8 254.7 286C254.6 282.2 251.5 279.1 247.7 279.1Z" fill="#E5E5E5"/>
<path d="M245.542 234.398C245.984 232.275 249.016 232.275 249.458 234.398L259.498 282.592C259.757 283.834 258.809 285 257.541 285H237.46C236.191 285 235.243 283.834 235.502 282.592L245.542 234.398Z" fill="#851616"/>
<path d="M135.409 286V283.955L143.091 275.545C143.992 274.561 144.735 273.705 145.318 272.977C145.902 272.242 146.333 271.553 146.614 270.909C146.902 270.258 147.045 269.576 147.045 268.864C147.045 268.045 146.848 267.337 146.455 266.739C146.068 266.14 145.538 265.678 144.864 265.352C144.189 265.027 143.432 264.864 142.591 264.864C141.697 264.864 140.917 265.049 140.25 265.42C139.591 265.784 139.08 266.295 138.716 266.955C138.36 267.614 138.182 268.386 138.182 269.273H135.5C135.5 267.909 135.814 266.712 136.443 265.682C137.072 264.652 137.928 263.848 139.011 263.273C140.102 262.697 141.326 262.409 142.682 262.409C144.045 262.409 145.254 262.697 146.307 263.273C147.36 263.848 148.186 264.625 148.784 265.602C149.383 266.58 149.682 267.667 149.682 268.864C149.682 269.72 149.527 270.557 149.216 271.375C148.913 272.186 148.383 273.091 147.625 274.091C146.875 275.083 145.833 276.295 144.5 277.727L139.273 283.318V283.5H150.091V286H135.409ZM162.375 286.318C160.663 286.318 159.205 285.852 158 284.92C156.795 283.981 155.875 282.621 155.239 280.841C154.602 279.053 154.284 276.894 154.284 274.364C154.284 271.848 154.602 269.701 155.239 267.92C155.883 266.133 156.807 264.769 158.011 263.83C159.223 262.883 160.678 262.409 162.375 262.409C164.072 262.409 165.523 262.883 166.727 263.83C167.939 264.769 168.864 266.133 169.5 267.92C170.144 269.701 170.466 271.848 170.466 274.364C170.466 276.894 170.148 279.053 169.511 280.841C168.875 282.621 167.955 283.981 166.75 284.92C165.545 285.852 164.087 286.318 162.375 286.318ZM162.375 283.818C164.072 283.818 165.39 283 166.33 281.364C167.269 279.727 167.739 277.394 167.739 274.364C167.739 272.348 167.523 270.633 167.091 269.216C166.667 267.799 166.053 266.72 165.25 265.977C164.455 265.235 163.496 264.864 162.375 264.864C160.693 264.864 159.379 265.693 158.432 267.352C157.485 269.004 157.011 271.341 157.011 274.364C157.011 276.379 157.223 278.091 157.648 279.5C158.072 280.909 158.682 281.981 159.477 282.716C160.28 283.451 161.246 283.818 162.375 283.818Z" fill="white"/>
<path d="M151 341.318C149.288 341.318 147.83 340.852 146.625 339.92C145.42 338.981 144.5 337.621 143.864 335.841C143.227 334.053 142.909 331.894 142.909 329.364C142.909 326.848 143.227 324.701 143.864 322.92C144.508 321.133 145.432 319.769 146.636 318.83C147.848 317.883 149.303 317.409 151 317.409C152.697 317.409 154.148 317.883 155.352 318.83C156.564 319.769 157.489 321.133 158.125 322.92C158.769 324.701 159.091 326.848 159.091 329.364C159.091 331.894 158.773 334.053 158.136 335.841C157.5 337.621 156.58 338.981 155.375 339.92C154.17 340.852 152.712 341.318 151 341.318ZM151 338.818C152.697 338.818 154.015 338 154.955 336.364C155.894 334.727 156.364 332.394 156.364 329.364C156.364 327.348 156.148 325.633 155.716 324.216C155.292 322.799 154.678 321.72 153.875 320.977C153.08 320.235 152.121 319.864 151 319.864C149.318 319.864 148.004 320.693 147.057 322.352C146.11 324.004 145.636 326.341 145.636 329.364C145.636 331.379 145.848 333.091 146.273 334.5C146.697 335.909 147.307 336.981 148.102 337.716C148.905 338.451 149.871 338.818 151 338.818Z" fill="white"/>
<path d="M150.864 234.227V231.909L161.091 215.727H162.773V219.318H161.636L153.909 231.545V231.727H167.682V234.227H150.864ZM161.818 239V233.523V232.443V215.727H164.5V239H161.818ZM179.531 239.318C177.819 239.318 176.361 238.852 175.156 237.92C173.952 236.981 173.031 235.621 172.395 233.841C171.759 232.053 171.44 229.894 171.44 227.364C171.44 224.848 171.759 222.701 172.395 220.92C173.039 219.133 173.963 217.769 175.168 216.83C176.38 215.883 177.834 215.409 179.531 215.409C181.228 215.409 182.679 215.883 183.884 216.83C185.096 217.769 186.02 219.133 186.656 220.92C187.3 222.701 187.622 224.848 187.622 227.364C187.622 229.894 187.304 232.053 186.668 233.841C186.031 235.621 185.111 236.981 183.906 237.92C182.702 238.852 181.243 239.318 179.531 239.318ZM179.531 236.818C181.228 236.818 182.546 236 183.486 234.364C184.425 232.727 184.895 230.394 184.895 227.364C184.895 225.348 184.679 223.633 184.247 222.216C183.823 220.799 183.209 219.72 182.406 218.977C181.611 218.235 180.652 217.864 179.531 217.864C177.849 217.864 176.535 218.693 175.588 220.352C174.641 222.004 174.168 224.341 174.168 227.364C174.168 229.379 174.38 231.091 174.804 232.5C175.228 233.909 175.838 234.981 176.634 235.716C177.437 236.451 178.402 236.818 179.531 236.818Z" fill="white"/>
<path d="M197.136 210.318C196.182 210.303 195.227 210.121 194.273 209.773C193.318 209.424 192.447 208.837 191.659 208.011C190.871 207.178 190.239 206.053 189.761 204.636C189.284 203.212 189.045 201.424 189.045 199.273C189.045 197.212 189.239 195.386 189.625 193.795C190.011 192.197 190.572 190.852 191.307 189.761C192.042 188.663 192.928 187.83 193.966 187.261C195.011 186.693 196.189 186.409 197.5 186.409C198.803 186.409 199.962 186.67 200.977 187.193C202 187.708 202.833 188.428 203.477 189.352C204.121 190.277 204.538 191.341 204.727 192.545H201.955C201.697 191.5 201.197 190.633 200.455 189.943C199.712 189.254 198.727 188.909 197.5 188.909C195.697 188.909 194.277 189.693 193.239 191.261C192.208 192.83 191.689 195.03 191.682 197.864H191.864C192.288 197.22 192.792 196.67 193.375 196.216C193.966 195.754 194.617 195.398 195.33 195.148C196.042 194.898 196.795 194.773 197.591 194.773C198.924 194.773 200.144 195.106 201.25 195.773C202.356 196.432 203.242 197.345 203.909 198.511C204.576 199.67 204.909 201 204.909 202.5C204.909 203.939 204.587 205.258 203.943 206.455C203.299 207.644 202.394 208.591 201.227 209.295C200.068 209.992 198.705 210.333 197.136 210.318ZM197.136 207.818C198.091 207.818 198.947 207.58 199.705 207.102C200.47 206.625 201.072 205.985 201.511 205.182C201.958 204.379 202.182 203.485 202.182 202.5C202.182 201.538 201.966 200.663 201.534 199.875C201.11 199.08 200.523 198.447 199.773 197.977C199.03 197.508 198.182 197.273 197.227 197.273C196.508 197.273 195.837 197.417 195.216 197.705C194.595 197.985 194.049 198.371 193.58 198.864C193.117 199.356 192.754 199.92 192.489 200.557C192.223 201.186 192.091 201.848 192.091 202.545C192.091 203.47 192.307 204.333 192.739 205.136C193.178 205.939 193.777 206.587 194.534 207.08C195.299 207.572 196.167 207.818 197.136 207.818ZM216.969 210.318C215.257 210.318 213.798 209.852 212.594 208.92C211.389 207.981 210.469 206.621 209.832 204.841C209.196 203.053 208.878 200.894 208.878 198.364C208.878 195.848 209.196 193.701 209.832 191.92C210.476 190.133 211.401 188.769 212.605 187.83C213.817 186.883 215.272 186.409 216.969 186.409C218.666 186.409 220.116 186.883 221.321 187.83C222.533 188.769 223.457 190.133 224.094 191.92C224.738 193.701 225.06 195.848 225.06 198.364C225.06 200.894 224.741 203.053 224.105 204.841C223.469 206.621 222.548 207.981 221.344 208.92C220.139 209.852 218.681 210.318 216.969 210.318ZM216.969 207.818C218.666 207.818 219.984 207 220.923 205.364C221.863 203.727 222.332 201.394 222.332 198.364C222.332 196.348 222.116 194.633 221.685 193.216C221.26 191.799 220.647 190.72 219.844 189.977C219.048 189.235 218.09 188.864 216.969 188.864C215.287 188.864 213.973 189.693 213.026 191.352C212.079 193.004 211.605 195.341 211.605 198.364C211.605 200.379 211.817 202.091 212.241 203.5C212.666 204.909 213.276 205.981 214.071 206.716C214.874 207.451 215.84 207.818 216.969 207.818Z" fill="white"/>
</svg>
