<svg width="500" height="500" viewBox="0 0 500 500" fill="none" xmlns="http://www.w3.org/2000/svg">
<g id="speedometerart-01 8">
<path id="Vector" d="M339.5 120.3L323.6 150.5C325.5 151.6 327.5 152.7 329.4 153.9C331.4 155.2 333.4 156.5 335.4 157.8C337.4 159.2 339.3 160.5 341.2 162C343.1 163.4 345 164.9 346.8 166.5C348.6 168 350.4 169.6 352.2 171.2C354 172.8 355.7 174.5 357.4 176.2C359.1 177.9 360.7 179.6 362.4 181.4C364 183.2 365.6 185 367.1 186.8C368.6 188.6 370.1 190.5 371.6 192.4C372 193 372.5 193.6 372.9 194.2L401 174.8C384.8 152.4 363.8 133.8 339.5 120.3Z" fill="#9C57AC"/>
<path id="Vector_2" d="M367.1 186.8C365.6 185 364 183.2 362.4 181.4C360.8 179.6 359.1 177.9 357.4 176.2C355.7 174.5 354 172.9 352.2 171.2C350.4 169.6 348.6 168 346.8 166.5C345 165 343.1 163.5 341.2 162C339.3 160.6 337.3 159.2 335.4 157.8C333.4 156.4 331.4 155.1 329.4 153.9C327.5 152.7 325.6 151.6 323.6 150.5L310.2 176C311.7 176.8 313.1 177.7 314.5 178.5C316.3 179.6 318.1 180.8 319.9 182C321.7 183.2 323.4 184.5 325.1 185.8C326.8 187.1 328.4 188.5 330.1 189.8C331.7 191.2 333.3 192.6 334.9 194.1C336.4 195.6 338 197.1 339.4 198.6C340.9 200.1 342.3 201.7 343.7 203.4C345.1 205 346.4 206.7 347.8 208.4C348.3 209.1 348.8 209.8 349.3 210.5L373 194.1C372.6 193.5 372.1 192.9 371.7 192.3C370.2 190.5 368.7 188.6 367.1 186.8Z" fill="#70447E"/>
<path id="Vector_3" d="M377.9 201.4C378.5 202.3 379.1 203.3 379.7 204.2C381 206.2 382.2 208.3 383.3 210.4C384.5 212.5 385.6 214.6 386.6 216.7C387.7 218.8 388.7 221 389.6 223.2C390.6 225.4 391.5 227.6 392.3 229.8C393.2 232 394 234.3 394.7 236.6C395.5 238.9 396.2 241.2 396.8 243.5C397.5 245.8 398.1 248.1 398.6 250.4C399.1 252.7 399.6 255.1 400.1 257.4C400.4 259.2 400.7 261.1 401 262.9L434.9 258.8C430.9 231.4 421 205.1 405.8 181.9L377.9 201.4Z" fill="#9C57AC"/>
<path id="Vector_4" d="M398.8 250.4C398.3 248.1 397.7 245.8 397 243.5C396.3 241.2 395.6 238.9 394.9 236.6C394.1 234.3 393.3 232.1 392.5 229.8C391.6 227.6 390.7 225.4 389.8 223.2C388.8 221 387.8 218.8 386.8 216.7C385.7 214.6 384.6 212.4 383.5 210.4C382.3 208.3 381.1 206.2 379.9 204.2C379.3 203.3 378.7 202.3 378.1 201.4L354.4 217.8C354.7 218.2 355 218.7 355.3 219.1C356.4 220.9 357.5 222.8 358.6 224.6C359.6 226.5 360.6 228.4 361.6 230.3C362.5 232.2 363.4 234.2 364.3 236.1C365.1 238.1 365.9 240 366.7 242.1C367.4 244.1 368.1 246.1 368.8 248.2C369.4 250.2 370 252.3 370.6 254.4C371.1 256.5 371.6 258.6 372 260.6C372.4 262.6 372.8 264.5 373.1 266.5L401.7 263C401.4 261.2 401.1 259.3 400.8 257.5C399.9 255.1 399.4 252.8 398.8 250.4Z" fill="#70447E"/>
<path id="Vector_5" d="M402.3 271.6C402.5 274.1 402.7 276.4 402.8 278.8C402.9 281.2 403 283.6 403 286C403 292.8 402.6 299.6 401.7 306.3C400.8 313 399.5 319.7 397.7 326.2C396.6 329.8 395.4 333.4 394.1 336.9L426.1 349C433.3 328.8 437 307.5 437.1 286C437.1 279.8 436.8 273.6 436.2 267.5L402.3 271.6Z" fill="#9C57AC"/>
<path id="Vector_6" d="M402.3 271.7L373.7 275.1C373.8 276.6 374 278.1 374 279.6C374.1 281.7 374.2 283.9 374.2 286C374.2 292 373.8 298 372.9 304C372 310 370.8 315.9 369.1 321.6C368.5 323.3 367.9 325 367.2 326.6L394.1 336.8C395.4 333.3 396.6 329.7 397.7 326.1C399.5 319.6 400.8 312.9 401.7 306.2C402.6 299.5 403 292.7 403 285.9C403 283.5 402.9 281.1 402.8 278.7C402.7 276.4 402.5 274.1 402.3 271.7Z" fill="#70447E"/>
<path id="Vector_7" d="M93.6998 306.3C92.7998 299.6 92.3998 292.8 92.3998 286C92.4998 281.2 92.7998 276.4 93.2998 271.6L59.3998 267.5C58.6998 273.6 58.3998 279.8 58.2998 286C58.3998 307.5 62.0998 328.8 69.2998 349L101.3 336.9C99.9998 333.4 98.7998 329.8 97.6998 326.2C95.8998 319.7 94.4998 313 93.6998 306.3Z" fill="#9C57AC"/>
<path id="Vector_8" d="M122.4 304C121.5 298 121.1 292 121.1 286C121.2 282.4 121.5 278.7 121.9 275.1L93.2999 271.6C92.7999 276.4 92.4999 281.2 92.3999 286C92.3999 292.8 92.7999 299.6 93.6999 306.3C94.5999 313 95.8999 319.7 97.6999 326.2C98.7999 329.8 99.9999 333.4 101.3 336.9L128.2 326.7C127.5 325 126.9 323.4 126.3 321.7C124.6 315.9 123.3 310 122.4 304Z" fill="#70447E"/>
<path id="Vector_9" d="M60.3999 258.9L94.1999 263C94.9999 257.2 96.1999 251.5 97.5999 245.8C99.3999 239.3 101.5 232.8 104.1 226.6C106.7 220.3 109.7 214.3 113.1 208.4C114.6 206.1 116.1 203.8 117.6 201.6L89.3999 182.2C74.2999 205.3 64.3999 231.5 60.3999 258.9Z" fill="#9C57AC"/>
<path id="Vector_10" d="M113.1 208.3C109.7 214.2 106.7 220.3 104.1 226.5C101.5 232.8 99.3002 239.2 97.6002 245.7C96.1002 251.4 95.0002 257.1 94.2002 262.9L122.7 266.4C123.5 261 124.7 255.6 126.2 250.3C127.9 244.5 130 238.9 132.5 233.4C135 228 137.8 222.7 141.1 217.7L117.6 201.5C116.1 203.8 114.6 206 113.1 208.3Z" fill="#70447E"/>
<path id="Vector_11" d="M94.3999 175L122.5 194.4C123.1 193.4 123.8 192.5 124.4 191.5C128.5 186.1 133 181 137.8 176.2C142.6 171.4 147.7 166.9 153.1 162.8C158.5 158.7 164.1 154.9 170 151.5C170.6 151.2 171.1 150.9 171.7 150.7L155.9 120.6C131.7 134 110.7 152.5 94.3999 175Z" fill="#9C57AC"/>
<path id="Vector_12" d="M170 151.5C164.1 154.9 158.5 158.7 153.1 162.8C147.7 166.9 142.6 171.4 137.8 176.2C133 181 128.5 186.1 124.4 191.5C123.7 192.5 123.1 193.4 122.5 194.4L146.3 210.8C148.1 208.2 150 205.6 152 203.2C155.9 198.6 160.2 194.4 164.8 190.4C169.4 186.5 174.2 182.8 179.2 179.6C181.1 178.5 183.1 177.4 185.1 176.4L171.6 150.7C171.1 150.9 170.6 151.2 170 151.5Z" fill="#70447E"/>
<path id="Vector_13" d="M179.5 146.8C182.4 145.3 185.3 143.8 188.2 142.5C194.5 139.9 200.9 137.7 207.4 136C213.9 134.2 220.6 132.9 227.3 132C232.6 131.4 237.9 131 243.2 131V96.8C215.5 97.4 188.3 104.2 163.5 116.5L179.5 146.8Z" fill="#9C57AC"/>
<path id="Vector_14" d="M207.5 136C201 137.8 194.5 139.9 188.3 142.5C185.3 143.8 182.4 145.3 179.6 146.8L192.9 172.2C193.7 171.8 194.4 171.4 195.2 171C200.7 168.5 206.3 166.4 212.1 164.7C217.9 163 223.8 161.7 229.7 160.9C234.2 160.3 238.8 160 243.4 159.9V131C238.1 131.1 232.8 131.4 227.5 132C220.7 132.9 214 134.2 207.5 136Z" fill="#70447E"/>
<path id="Vector_15" d="M303.8 141.2C301.6 140.3 299.3 139.5 297.1 138.8C294.8 138 292.5 137.3 290.2 136.7C287.9 136 285.6 135.4 283.3 134.9C281 134.4 278.6 133.9 276.3 133.4C273.9 133 271.6 132.6 269.2 132.2C266.8 131.9 264.5 131.6 262.1 131.4C259.7 131.2 257.3 131 254.9 130.9C254 130.9 253 130.8 252.1 130.8V159.6C252.8 159.6 253.5 159.6 254.2 159.6C256.3 159.7 258.5 159.9 260.6 160.1C262.7 160.3 264.8 160.6 267 160.9C269.1 161.2 271.2 161.6 273.3 162C275.4 162.4 277.5 162.9 279.5 163.5C281.6 164 283.6 164.6 285.7 165.3C287.7 165.9 289.8 166.6 291.8 167.4C293.8 168.1 295.8 168.9 297.8 169.8C299.5 170.5 301.2 171.3 302.8 172.1L316.2 146.6C314.4 145.7 312.5 144.8 310.6 144C308.2 143 306 142 303.8 141.2Z" fill="#70447E"/>
<path id="Vector_16" d="M252 130.8C252.9 130.8 253.9 130.8 254.8 130.9C257.2 131 259.6 131.2 262 131.4C264.4 131.6 266.8 131.9 269.1 132.2C271.5 132.5 273.8 132.9 276.2 133.4C278.6 133.8 280.9 134.3 283.2 134.9C285.5 135.4 287.8 136.1 290.1 136.7C292.4 137.4 294.7 138.1 297 138.8C299.3 139.6 301.5 140.4 303.7 141.2C305.9 142.1 308.1 143 310.3 143.9C312.2 144.7 314 145.6 315.9 146.5L331.8 116.3C307 104 279.7 97.3 252 96.7V130.8Z" fill="#9C57AC"/>
<g id="Vector_17">
<path d="M247.7 268.5C237.9 268.5 230 276.3 230 286C230 295.6 237.9 303.5 247.7 303.5C257.5 303.5 265.4 295.7 265.4 286C265.3 276.4 257.4 268.5 247.7 268.5Z" fill="#E04644"/>
<path d="M247.7 279.1C243.8 279.1 240.7 282.2 240.7 286C240.7 289.8 243.8 292.9 247.7 292.9C251.6 292.9 254.7 289.8 254.7 286C254.6 282.2 251.5 279.1 247.7 279.1Z" fill="#E5E5E5"/>
</g>
<path id="Polygon 3" d="M245.542 234.398C245.984 232.275 249.016 232.275 249.458 234.398L259.498 282.592C259.757 283.834 258.809 285 257.541 285H237.46C236.191 285 235.243 283.834 235.502 282.592L245.542 234.398Z" fill="#851616"/>
<text id="20" fill="white" xml:space="preserve" style="white-space: pre" font-family="Inter" font-size="32" letter-spacing="0em"><tspan x="133" y="286.136">20</tspan></text>
<text id="0" fill="white" xml:space="preserve" style="white-space: pre" font-family="Inter" font-size="32" letter-spacing="0em"><tspan x="141" y="341.136">0</tspan></text>
<text id="40" fill="white" xml:space="preserve" style="white-space: pre" font-family="Inter" font-size="32" letter-spacing="0em"><tspan x="149" y="239.136">40</tspan></text>
<text id="60" fill="white" xml:space="preserve" style="white-space: pre" font-family="Inter" font-size="32" letter-spacing="0em"><tspan x="187" y="210.136">60</tspan></text>
</g>
</svg>
